<?xml version="1.0" encoding="UTF-8"?>
<svg width="32px" height="32px" viewBox="0 0 32 32" version="1.1" xmlns="http://www.w3.org/2000/svg" xmlns:xlink="http://www.w3.org/1999/xlink">
    <title>shop@2x</title>
    <g id="Welcome" stroke="none" stroke-width="1" fill="none" fill-rule="evenodd">
        <g id="Login-page--3-Copy" transform="translate(-307.000000, -596.000000)" fill="#007AFF">
            <g id="Group-4" transform="translate(203.000000, 596.000000)">
                <g id="shop" transform="translate(104.000000, 0.000000)">
                    <circle id="Oval" fill-opacity="0.2" cx="16" cy="16" r="16"></circle>
                    <g transform="translate(8.000000, 6.000000)" fill-rule="nonzero">
                        <path d="M10.6430698,2.31488372 C10.4547907,0.995255814 9.30613953,0 7.97134884,0 C7.11293023,0 6.29767442,0.414232558 5.7907907,1.10846512 C5.68725581,1.25004651 5.71823256,1.44865116 5.85981395,1.55218605 C6.00093023,1.65534884 6.2,1.62474419 6.30334884,1.48297674 C6.69134884,0.952093023 7.3147907,0.635069767 7.97125581,0.635069767 C8.99209302,0.635069767 9.87032558,1.39581395 10.0143256,2.40446512 C10.0370233,2.56288372 10.1729302,2.6772093 10.3283721,2.6772093 C10.3431628,2.6772093 10.3584186,2.67609302 10.3735814,2.67404651 C10.5471628,2.6492093 10.667814,2.48837209 10.6430698,2.31488372 Z" id="Path"></path>
                        <path d="M15.2290233,5.86939535 L14.2764651,4.28176744 C14.2191628,4.18604651 14.115814,4.12762791 14.004186,4.12762791 L13.0913488,4.12762791 C12.916093,4.12762791 12.7738605,4.26986047 12.7738605,4.44511628 C12.7738605,4.62037209 12.916093,4.76260465 13.0913488,4.76260465 L13.8244651,4.76260465 L14.396,5.71516279 L1.54660465,5.71516279 L2.11813953,4.76260465 L2.4544186,4.76260465 C2.62967442,4.76260465 2.77190698,4.62037209 2.77190698,4.44511628 C2.77190698,4.26986047 2.62967442,4.12762791 2.4544186,4.12762791 L1.9384186,4.12762791 C1.8267907,4.12762791 1.72344186,4.18604651 1.66613953,4.28176744 L0.713581395,5.86939535 C0.654697674,5.96762791 0.653302326,6.08976744 0.709581395,6.18930233 C0.765860465,6.28883721 0.871348837,6.3504186 0.985860465,6.3504186 L14.9567442,6.3504186 C15.0712558,6.3504186 15.1766512,6.28883721 15.2330233,6.18930233 C15.2893953,6.08976744 15.287907,5.96744186 15.2290233,5.86939535 Z" id="Path"></path>
                        <path d="M13.6463256,2.94167442 C13.6018605,2.86995349 13.5308837,2.81906977 13.4488372,2.79990698 L9.12037209,1.78753488 C9.0384186,1.76827907 8.95209302,1.78260465 8.88046512,1.82688372 C8.80902326,1.87134884 8.75804651,1.94232558 8.73888372,2.02437209 L8.41246512,3.41972093 C8.37246512,3.5904186 8.47851163,3.7612093 8.64930233,3.80102326 C8.82,3.84102326 8.99097674,3.73497674 9.0307907,3.56418605 L9.28493023,2.47813953 L12.9949767,3.34595349 L12.412,5.83851163 C12.372,6.0092093 12.4780465,6.18 12.6488372,6.21981395 C12.6733023,6.22548837 12.6975814,6.22818605 12.7215814,6.22818605 C12.8657674,6.22818605 12.9962791,6.12939535 13.0302326,5.98306977 L13.6855814,3.18139535 C13.7049302,3.09944186 13.6907907,3.01311628 13.6463256,2.94167442 Z" id="Path"></path>
                        <path d="M8.13925581,3.69227907 L7.84995349,1.24530233 C7.84009302,1.16167442 7.79739535,1.08530233 7.73116279,1.0332093 C7.66493023,0.981116279 7.58130233,0.957302326 7.49730233,0.967162791 L2.18660465,1.59488372 C2.01255814,1.61553488 1.88809302,1.77330233 1.90865116,1.94753488 L2.39097674,6.02874419 C2.41013953,6.19032558 2.54716279,6.30911628 2.70595349,6.30911628 C2.71832558,6.30911628 2.73106977,6.30827907 2.74372093,6.30688372 C2.91767442,6.28623256 3.04213953,6.12846512 3.02167442,5.95423256 L2.57655814,2.18809302 L7.25665116,1.63497674 L7.50855814,3.76660465 C7.5292093,3.94074419 7.68623256,4.06446512 7.8612093,4.04474419 C8.03525581,4.02427907 8.15972093,3.8664186 8.13925581,3.69227907 Z" id="Path"></path>
                        <path d="M10.6504186,5.91218605 L10.020186,3.29134884 C10.0004651,3.2095814 9.94902326,3.1387907 9.87730233,3.0947907 C9.8055814,3.05116279 9.71953488,3.03748837 9.6372093,3.05702326 L4.52213953,4.28716279 C4.35162791,4.32809302 4.24669767,4.49962791 4.28762791,4.67013953 L4.60260465,5.98009302 C4.64353488,6.1507907 4.81506977,6.25581395 4.98548837,6.21460465 C5.156,6.17367442 5.26093023,6.00213953 5.22,5.83162791 L4.97916279,4.83032558 L9.47683721,3.74883721 L10.0328372,6.06083721 C10.0677209,6.2064186 10.1979535,6.30409302 10.3413023,6.30409302 C10.3659535,6.30409302 10.3908837,6.3012093 10.415907,6.29516279 C10.5864186,6.25413953 10.6913488,6.08269767 10.6504186,5.91218605 Z" id="Path"></path>
                        <path d="M15.2741395,6.01665116 C15.2653953,5.84790698 15.1260465,5.71544186 14.9569302,5.71544186 L0.986046512,5.71544186 C0.816930233,5.71544186 0.677581395,5.84781395 0.668837209,6.01665116 L0.0337674419,18.399907 C0.0293023256,18.4867907 0.060744186,18.571814 0.120651163,18.6348837 C0.180651163,18.6978605 0.263813953,18.7336744 0.350883721,18.7336744 L15.591814,18.7336744 C15.6787907,18.7336744 15.7620465,18.6979535 15.8223256,18.6348837 C15.8821395,18.571814 15.9135814,18.4868837 15.9092093,18.399907 L15.2741395,6.01665116 Z M0.685023256,18.0986047 L1.28753488,6.3504186 L14.6550698,6.3504186 L15.2575814,18.0986047 L0.685023256,18.0986047 Z" id="Shape"></path>
                        <path d="M10.3527442,6.98539535 C9.82744186,6.98539535 9.40018605,7.41265116 9.40018605,7.93795349 C9.40018605,8.46325581 9.82744186,8.89051163 10.3527442,8.89051163 C10.8780465,8.89051163 11.3053023,8.46325581 11.3053023,7.93795349 C11.3053023,7.41265116 10.8780465,6.98539535 10.3527442,6.98539535 Z M10.3527442,8.25553488 C10.1775814,8.25553488 10.0352558,8.11311628 10.0352558,7.93804651 C10.0352558,7.76297674 10.1776744,7.62055814 10.3527442,7.62055814 C10.527814,7.62055814 10.6702326,7.76297674 10.6702326,7.93804651 C10.6702326,8.11311628 10.527814,8.25553488 10.3527442,8.25553488 Z" id="Shape"></path>
                        <path d="M5.58995349,6.98539535 C5.06465116,6.98539535 4.63739535,7.41265116 4.63739535,7.93795349 C4.63739535,8.46325581 5.06465116,8.89051163 5.58995349,8.89051163 C6.11525581,8.89051163 6.54251163,8.46325581 6.54251163,7.93795349 C6.54251163,7.41265116 6.11525581,6.98539535 5.58995349,6.98539535 Z M5.58995349,8.25553488 C5.41488372,8.25553488 5.27246512,8.11311628 5.27246512,7.93804651 C5.27246512,7.76297674 5.41488372,7.62055814 5.58995349,7.62055814 C5.76502326,7.62055814 5.90744186,7.76297674 5.90744186,7.93804651 C5.90744186,8.11311628 5.76502326,8.25553488 5.58995349,8.25553488 Z" id="Shape"></path>
                        <path d="M10.3527442,7.93795349 L10.3282791,7.93795349 C10.1530233,7.93795349 10.0107907,8.08018605 10.0107907,8.25544186 C10.0107907,8.2987907 10.0193488,8.34018605 10.0352558,8.37786047 L10.0352558,10.0017674 C10.0352558,11.1397209 9.10939535,12.0656744 7.97134884,12.0656744 C6.83330233,12.0656744 5.90744186,11.139814 5.90744186,10.0017674 L5.90744186,8.25553488 C5.90744186,8.08027907 5.7652093,7.93804651 5.58995349,7.93804651 C5.41469767,7.93804651 5.27246512,8.08027907 5.27246512,8.25553488 L5.27246512,10.0018605 C5.27246512,11.4900465 6.48316279,12.7007442 7.97134884,12.7007442 C9.45953488,12.7007442 10.6702326,11.4900465 10.6702326,10.0018605 L10.6702326,8.25553488 C10.6702326,8.08027907 10.528,7.93795349 10.3527442,7.93795349 Z" id="Path"></path>
                    </g>
                </g>
            </g>
        </g>
    </g>
</svg>