<?xml version="1.0" encoding="UTF-8"?>
<svg width="56px" height="56px" viewBox="0 0 56 56" version="1.1" xmlns="http://www.w3.org/2000/svg" xmlns:xlink="http://www.w3.org/1999/xlink">
    <title>logo-main</title>
    <defs>
        <rect id="path-1" x="0" y="0" width="48" height="48" rx="8"></rect>
    </defs>
    <g id="Page-1" stroke="none" stroke-width="1" fill="none" fill-rule="evenodd">
        <g id="Webcare" transform="translate(-1354.000000, -20.000000)">
            <g id="sidenav" transform="translate(1185.000000, 24.000000)">
                <g id="background" transform="translate(90.000000, 0.000000)">
                    <g id="logo-main" transform="translate(83.000000, 0.000000)">
                        <mask id="mask-2" fill="white">
                            <use xlink:href="#path-1"></use>
                        </mask>
                        <g id="Mask-2">
                            <use fill="#FFBE00" fill-rule="evenodd" xlink:href="#path-1"></use>
                            <rect stroke-opacity="0.207304414" stroke="#FFCC00" stroke-width="4" x="-2" y="-2" width="52" height="52" rx="8"></rect>
                            <use stroke="#FFFFFF" stroke-width="2" xlink:href="#path-1"></use>
                        </g>
                        <g id="Group" mask="url(#mask-2)">
                            <g transform="translate(-3.750000, 0.750000)">
                                <g id="Group-11" stroke="none" stroke-width="1" fill-rule="evenodd" transform="translate(5.250000, 0.000000)">
                                    <path d="M3.05988925,13.9331446 C3.05988925,9.77343426 11.5984333,6.40234844 22.1357055,6.40234844 C32.6723819,6.40234844 41.2130291,9.77343426 41.2130291,13.9331446 C41.2130291,18.0928549 32.6723819,21.4638239 22.1357055,21.4638239 C11.5984333,21.4638239 3.05988925,18.0928549 3.05988925,13.9331446" id="Fill-3" fill="#005D7B"></path>
                                    <polygon id="Fill-7" fill="#005D7B" points="11.0711782 34.7536801 9.76302812 39.9986664 7.37940553 39.9986664 9.26641622 32.2947495 12.6293461 32.2947495 13.0206203 37.6560104 16.0082023 32.2947495 19.5371953 32.2947495 17.6287198 40.0203181 15.1183181 40.0203181 16.6114138 34.5221125 13.5198847 40.0203181 11.4468767 40.0203181"></polygon>
                                    <polygon id="Fill-8" fill="#005D7B" points="26.6619512 40.0140399 28.5439725 32.294711 30.9250946 32.294711 33.2933868 37.1879874 34.5190546 32.294711 36.9385376 32.294711 34.9984666 40.0140399 32.5817529 40.0140399 30.1955129 35.1247713 28.9512314 40.0140399"></polygon>
                                    <polygon id="Fill-9" fill="#CD242A" points="23.600176 38.8816232 21.2508831 38.8816232 20.9692933 40.0180548 23.3128841 40.0180548"></polygon>
                                    <polygon id="Fill-10" fill="#005D7B" points="20.4504618 32.2947484 19.9540835 34.4187951 22.3595215 34.4187951 21.3593336 38.4556407 23.7048874 38.4556407 24.7233969 34.4187951 27.1525198 34.4187951 27.6926105 32.2947484"></polygon>
                                </g>
                                <line x1="0.375" y1="27.375" x2="53.625" y2="27.375" id="Line" stroke="#FFFFFF" stroke-width="1.3" stroke-linecap="square"></line>
                                <g id="Group-26" stroke="none" stroke-width="1" fill-rule="evenodd" transform="translate(13.500000, 9.750000)">
                                    <path d="M5.47297665,6.39087949 C5.47297665,6.79011273 5.39501363,7.14970255 5.23933904,7.46981783 C5.0835273,7.78976421 4.86932044,8.06129638 4.59682134,8.28451086 C4.3241965,8.50758056 4.00566939,8.6808366 3.64138857,8.80414625 C3.27698203,8.9274559 2.88622967,8.98910469 2.46901721,8.98910469 C1.65126844,8.98910469 1.03652528,8.78790764 0.624913447,8.38579102 C0.213164455,7.98354169 0.00742711788,7.40663686 0.00742711788,6.65510067 C0.00742711788,6.43794249 0.040802286,6.12527091 0.107564052,5.71709799 C0.174314388,5.30906984 0.321645182,4.7850189 0.549807889,4.14495724 L1.55113151,4.45322534 C1.48985607,4.71744651 1.43979332,4.95085536 1.40093182,5.15342775 C1.36195603,5.35600013 1.3313126,5.53213954 1.30915011,5.68187011 C1.28685047,5.83161273 1.27290605,5.96083391 1.26743115,6.069413 C1.26181909,6.1781248 1.25908736,6.27059799 1.25908736,6.34684464 C1.25908736,6.48184464 1.28124984,6.60515429 1.3258377,6.71676153 C1.37029982,6.82823606 1.44396522,6.92511273 1.54695961,7.00741568 C1.64982828,7.08957386 1.78334039,7.1541181 1.94749592,7.2011811 C2.1115143,7.24811139 2.31320547,7.27163686 2.55245513,7.27163686 C2.83616692,7.27163686 3.08649211,7.24659129 3.30345356,7.19677761 C3.52040359,7.14681917 3.70253828,7.08365027 3.85000623,7.00741568 C3.99733702,6.93102426 4.10997822,6.84585 4.18795267,6.75200147 C4.26578996,6.65800818 4.30476576,6.56704303 4.30476576,6.47896126 L4.17960887,0.137532306 L5.47297665,0.0054036193 L5.47297665,3.83668914 C5.47297665,4.02467574 5.4924074,4.17880979 5.53138319,4.29907922 C5.57024469,4.4195055 5.62734823,4.51349879 5.70245379,4.58093847 C5.77754792,4.64849879 5.86516916,4.69542909 5.96529467,4.72185 C6.06542017,4.74828298 6.1793758,4.76148137 6.307413,4.76148137 L6.307413,6.47896126 C6.11823752,6.47896126 5.95552214,6.45555643 5.81926688,6.40849343 C5.68288588,6.36156314 5.56751295,6.2823004 5.47297665,6.17069316 L5.47297665,6.39087949 Z" id="Fill-12" fill="#FFFFFE"></path>
                                    <path d="M9.10271363,6.47895885 C8.78562667,6.47895885 8.53660448,6.41883016 8.35589852,6.29840389 C8.1750554,6.17812239 8.02068382,6.01807681 7.89278377,5.8183878 C7.74805899,6.04160228 7.56448413,6.20743874 7.34204778,6.31601783 C7.11949713,6.42474169 6.83018472,6.47895885 6.47424769,6.47895885 L6.30736042,6.47895885 C6.24619928,6.47895885 6.19614796,6.40120416 6.15714931,6.24555 C6.11831067,6.09005268 6.09875419,5.88885563 6.09875419,5.64224839 C6.09875419,5.37801515 6.11831067,5.16524839 6.15714931,5.00369477 C6.19614796,4.8422618 6.24619928,4.76149102 6.30736042,4.76149102 L6.47424769,4.76149102 C6.67451013,4.76149102 6.83578534,4.74096957 6.95821049,4.69983016 C7.08050991,4.65882346 7.17790368,4.58396421 7.25026607,4.47524035 C7.32250273,4.36666126 7.37126248,4.21542265 7.39629386,4.02164517 C7.42132524,3.82787976 7.43384092,3.5754937 7.43384092,3.26419745 L8.56033286,3.26419745 L8.56033286,3.55485161 L8.56033286,3.87633016 C8.56033286,3.98504196 8.55889269,4.08921756 8.55616096,4.18900174 C8.55329207,4.28890657 8.54912017,4.37698834 8.54363384,4.45322292 C8.61587051,4.58835563 8.70766365,4.67340925 8.81900184,4.70863713 C8.9302143,4.74387708 9.03869502,4.76149102 9.14443259,4.76149102 C9.2612571,4.76149102 9.35851372,4.73946153 9.43648817,4.69542668 C9.51432546,4.65139182 9.57834406,4.57211702 9.62840681,4.45762641 C9.67846957,4.34312373 9.7145879,4.19050979 9.73687611,3.99962775 C9.75905002,3.80890255 9.77026271,3.56365858 9.77026271,3.26419745 L10.8967432,3.26419745 L10.8967432,3.56365858 L10.8967432,3.89834759 C10.8967432,4.00995483 10.8953145,4.11853391 10.8925713,4.22421756 C10.8897024,4.32991327 10.8855305,4.42102319 10.8800556,4.49725777 C10.9745919,4.60886501 11.0719857,4.68084088 11.1721112,4.71304062 C11.2722367,4.74538512 11.3751054,4.76149102 11.4808544,4.76149102 C11.5809799,4.76149102 11.6630005,4.74387708 11.7270077,4.70863713 C11.7908891,4.67340925 11.8409633,4.59855 11.8772074,4.48404732 C11.9133257,4.36954464 11.9397858,4.20220013 11.9564848,3.98201381 C11.9731724,3.76182748 11.9815162,3.46388646 11.9815162,3.08805804 L13.1079967,3.08805804 L13.1079967,4.03925912 C13.1079967,4.31532748 13.1649745,4.50468941 13.2790558,4.60734491 C13.3930115,4.71015724 13.5863589,4.76149102 13.8589837,4.76149102 L13.8589837,6.47895885 C13.7421706,6.47895885 13.6211742,6.47167198 13.4960173,6.45694142 C13.370849,6.44235563 13.2484124,6.41151917 13.1288676,6.36446823 C13.0091742,6.31752587 12.8965216,6.24996555 12.7909212,6.16188378 C12.6851722,6.07381408 12.5961222,5.95931139 12.523897,5.8183878 C12.4181594,5.99455134 12.2735603,6.14867332 12.0899855,6.28078995 C11.9064106,6.4128945 11.6894606,6.47895885 11.4391354,6.47895885 C11.3444734,6.47895885 11.2443479,6.46725643 11.138736,6.44373097 C11.0329985,6.4203382 10.9272495,6.38359021 10.8216491,6.33363177 C10.7159115,6.2838181 10.6157746,6.2206492 10.5212497,6.14426984 C10.4265991,6.06802319 10.3431498,5.97402989 10.2709245,5.86242265 C10.1040372,6.1266559 9.92045096,6.29552051 9.72018853,6.36885965 C9.51992609,6.44235563 9.31406302,6.47895885 9.10271363,6.47895885" id="Fill-14" fill="#FFFFFE"></path>
                                    <path d="M15.9867775,0.886163405 L15.9867775,1.01828003 L15.2357905,1.81095563 L15.1106336,1.81095563 L14.3596352,1.01828003 L14.3596352,0.886163405 L15.1106336,0.0934878016 L15.2357905,0.0934878016 L15.9867775,0.886163405 Z M14.860297,4.45321568 C14.860297,4.34175322 14.8477813,4.14495965 14.82275,3.86311247 C14.7977186,3.58127735 14.7545595,3.17612051 14.6934097,2.64767815 L15.9450586,2.42749182 C15.967221,2.59194088 15.988092,2.76658432 16.0076484,2.95154276 C16.0270677,3.13648914 16.0451955,3.31414866 16.0618716,3.48438861 C16.0785707,3.65476126 16.0910978,3.81025858 16.0994187,3.95118217 C16.1077739,4.09211783 16.1119458,4.20082962 16.1119458,4.27707627 C16.1119458,4.68222105 16.056271,5.02571702 15.9450586,5.30755214 C15.8337204,5.58938727 15.6822177,5.81700523 15.4902876,5.99014062 C15.298369,6.16339665 15.077247,6.28821434 14.8269219,6.36446099 C14.5765967,6.44082828 14.3095725,6.47896367 14.0258607,6.47896367 L13.8589734,6.47896367 C13.7978237,6.47896367 13.7477609,6.40119692 13.7087737,6.24555483 C13.6699236,6.09004544 13.6503672,5.88884839 13.6503672,5.64224115 C13.6503672,5.37801997 13.6699236,5.16525322 13.7087737,5.00368753 C13.7477609,4.84226662 13.7978237,4.76148378 13.8589734,4.76148378 L14.0675796,4.76148378 C14.2344669,4.76148378 14.369282,4.75130147 14.4722878,4.73065938 C14.5751565,4.71015 14.6558627,4.6852492 14.7142692,4.65578807 C14.7726872,4.62648378 14.8115373,4.59413928 14.8310937,4.55891139 C14.8505245,4.52368351 14.860297,4.48844357 14.860297,4.45321568 L14.860297,4.45321568 Z" id="Fill-16" fill="#FFFFFE"></path>
                                    <polygon id="Fill-18" fill="#FFFFFE" points="18.0310911 0.00540723861 18.0310911 6.43491796 16.8628803 6.52299973 16.7377234 0.137523861"></polygon>
                                    <path d="M20.8639194,6.40849343 C20.7331619,6.36156314 20.6177661,6.27941702 20.5176292,6.16188619 C20.4563537,7.01910603 20.1824259,7.66936206 19.6957199,8.11276287 C19.2088768,8.55603097 18.5427565,8.78942775 17.6972446,8.81296528 L17.4052004,7.35971863 C17.7723502,7.27163686 18.0741783,7.17916367 18.3105476,7.082287 C18.5469284,6.98538619 18.7361153,6.88700147 18.8779712,6.78722936 C19.0198156,6.68731247 19.1199526,6.58906046 19.1783591,6.49217172 C19.2367771,6.39528298 19.2714553,6.30280979 19.282668,6.21472802 C19.282668,6.03858861 19.2520359,5.71709799 19.1908862,5.25030442 C19.1296108,4.78351086 19.0350745,4.19491568 18.9071745,3.48438619 L20.1588347,3.13208324 C20.2310599,3.49622131 20.2978103,3.78535536 20.3590857,3.99963016 C20.4202468,4.21403767 20.4911691,4.37836609 20.5718638,4.4928567 C20.6524443,4.60734732 20.7512782,4.6808433 20.8680913,4.71304303 C20.9849158,4.74537547 21.1378587,4.76148137 21.3270342,4.76148137 L21.3270342,6.47896126 C21.1489456,6.47896126 20.9945626,6.45555643 20.8639194,6.40849343" id="Fill-20" fill="#FFFFFE"></path>
                                    <path d="M22.4534392,8.01147185 L22.4534392,7.87936729 L23.1627073,7.13071448 L23.2878756,7.13071448 L23.9971436,7.87936729 L23.9971436,8.01147185 L23.2878756,8.76012466 L23.1627073,8.76012466 L22.4534392,8.01147185 Z M22.3282709,4.45322654 C22.3282709,4.34175201 22.3157552,4.14495845 22.2907238,3.86311126 C22.2656925,3.58127614 22.2225333,3.1761193 22.1613836,2.64767694 L23.4130325,2.42749062 C23.4352064,2.59193968 23.4560658,2.76658311 23.4756223,2.95154155 C23.4950531,3.13648794 23.5131694,3.31415952 23.529857,3.4843874 C23.546556,3.65476005 23.5590602,3.81026944 23.567404,3.95118097 C23.5757478,4.09211662 23.5799312,4.20082842 23.5799312,4.27707507 C23.5799312,4.68221984 23.5242563,5.02571582 23.4130325,5.30755094 C23.3016943,5.58938606 23.1501916,5.81701609 22.9582729,5.99013941 C22.7663543,6.16339544 22.5452209,6.28821314 22.2948957,6.36445979 C22.0445706,6.44083914 21.7775463,6.47896247 21.4938346,6.47896247 L21.3269473,6.47896247 C21.265809,6.47896247 21.2157348,6.40119571 21.176759,6.24555362 C21.1378975,6.09004424 21.1183411,5.88885925 21.1183411,5.64223995 C21.1183411,5.37801877 21.1378975,5.16525201 21.176759,5.00368633 C21.2157348,4.84226542 21.265809,4.76148257 21.3269473,4.76148257 L21.5355535,4.76148257 C21.7024522,4.76148257 21.8372673,4.75131233 21.9402617,4.73065818 C22.0431418,4.71014879 22.1238366,4.68524799 22.1822431,4.65579893 C22.2406611,4.62648257 22.2795112,4.59413807 22.2990676,4.55891019 C22.318487,4.52368231 22.3282709,4.48844236 22.3282709,4.45322654 L22.3282709,4.45322654 Z M20.9097348,8.01147185 L20.9097348,7.87936729 L21.6190029,7.13071448 L21.7441597,7.13071448 L22.4534392,7.87936729 L22.4534392,8.01147185 L21.7441597,8.76012466 L21.6190029,8.76012466 L20.9097348,8.01147185 Z" id="Fill-22" fill="#FFFFFE"></path>
                                    <polygon id="Fill-24" fill="#FFFFFE" points="25.4990708 0.00540723861 25.4990708 6.43491796 24.3308599 6.52299973 24.205703 0.137523861"></polygon>
                                </g>
                            </g>
                        </g>
                    </g>
                </g>
            </g>
        </g>
    </g>
</svg>