<svg width="512" height="512" xmlns="http://www.w3.org/2000/svg">
 <g>
  <g stroke="null" id="More">
   <path stroke="null" id="svg_1" d="m256.00001,220.38711a35.6129,35.6129 0 1 0 35.6129,35.6129a35.65297,35.65297 0 0 0 -35.6129,-35.6129zm0,62.32258a26.70968,26.70968 0 1 1 26.70968,-26.70968a26.74028,26.74028 0 0 1 -26.70968,26.70968z"/>
   <path stroke="null" id="svg_2" d="m153.6129,220.38711a35.6129,35.6129 0 1 0 35.6129,35.6129a35.65297,35.65297 0 0 0 -35.6129,-35.6129zm0,62.32258a26.70968,26.70968 0 1 1 26.70968,-26.70968a26.74028,26.74028 0 0 1 -26.70968,26.70968z"/>
   <path stroke="null" id="svg_3" d="m358.38711,220.38711a35.6129,35.6129 0 1 0 35.6129,35.6129a35.65297,35.65297 0 0 0 -35.6129,-35.6129zm0,62.32258a26.70968,26.70968 0 1 1 26.70968,-26.70968a26.74028,26.74028 0 0 1 -26.70968,26.70968z"/>
  </g>
 </g>
</svg>
